<?xml version="1.0" encoding="UTF-8"?>
<svg version="1.1" xmlns="http://www.w3.org/2000/svg" width="318" height="318">
<path d="M0 0 C104.94 0 209.88 0 318 0 C318 104.94 318 209.88 318 318 C213.06 318 108.12 318 0 318 C0 213.06 0 108.12 0 0 Z " fill="#FDFDFD" transform="translate(0,0)"/>
<path d="M0 0 C3 0 3 0 4.6484375 1.57421875 C5.21820313 2.27160156 5.78796875 2.96898438 6.375 3.6875 C8.44687319 6.18864078 10.37352213 8.33201967 12.8125 10.5 C15.66135049 13.75582913 16.30546912 16.85344435 17 21 C17.24169922 22.36705078 17.24169922 22.36705078 17.48828125 23.76171875 C18.20269066 27.93365158 18.86534133 32.11209438 19.5 36.296875 C19.7475 37.88242188 19.7475 37.88242188 20 39.5 C20.144375 40.4590625 20.28875 41.418125 20.4375 42.40625 C20.97821345 44.8995398 21.74888301 46.78969333 23 49 C26.61030137 41.70258234 28.12237162 34.17628622 29.51660156 26.22167969 C30.95806404 18.27357291 32.67961166 12.56462378 39 7.0625 C39.86625 6.29035156 40.7325 5.51820312 41.625 4.72265625 C44 3 44 3 47 3 C48.26730564 20.33995977 48.26730564 20.33995977 41.82421875 28.21484375 C40 30 40 30 37 32 C35.80578112 34.33866912 35.80578112 34.33866912 34.875 37 C33 42 33 42 32 44 C31.34 44 30.68 44 30 44 C28.92474806 46.65228812 27.90543849 49.28368454 27 52 C28.08539063 51.43410156 29.17078125 50.86820313 30.2890625 50.28515625 C31.7341553 49.54384241 33.17948017 48.80298082 34.625 48.0625 C35.33785156 47.68931641 36.05070312 47.31613281 36.78515625 46.93164062 C40.86918102 44.85216012 44.3702221 43.46005679 49 43 C49.14115234 42.09447388 49.14115234 42.09447388 49.28515625 41.1706543 C50.40915126 37.7575943 52.61674953 36.74787488 55.625 34.99462891 C59.72357566 33.27818182 63.62560202 33.46911608 68 33.6875 C68.87011719 33.71005859 69.74023438 33.73261719 70.63671875 33.75585938 C72.75857251 33.81415206 74.87952629 33.90380916 77 34 C76.28948187 39.43450352 74.07240302 42.21728384 70.203125 45.98046875 C64.1500252 49.79687435 57.17409315 49.99151683 50.18701172 50.70263672 C47.02581415 51.13245796 44.05279726 52.09058026 41 53 C37.57115989 53.55229639 34.14019284 53.99806196 30.6953125 54.4375 C29.36113281 54.7159375 29.36113281 54.7159375 28 55 C27.505 55.99 27.505 55.99 27 57 C27.99 57.1546875 27.99 57.1546875 29 57.3125 C32 58 32 58 35.35546875 59.3515625 C42.29446863 61.99397049 49.64725287 63.26692695 56.88476562 64.83789062 C58.01205078 65.08861328 59.13933594 65.33933594 60.30078125 65.59765625 C61.32341064 65.81945557 62.34604004 66.04125488 63.3996582 66.26977539 C66.77813165 67.21851392 68.56723811 68.27217318 70.375 71.3125 C71.95763756 74.17194165 71.95763756 74.17194165 74.6875 76.6875 C77 79 77 79 77 81 C60.60535451 82.37613086 60.60535451 82.37613086 54.60546875 79.20703125 C51.92746194 76.91980655 49.47889977 74.49928545 47 72 C44.60763145 70.30184554 42.16693751 68.74483108 39.6796875 67.19140625 C38 66 38 66 37 64 C35.2519144 63.1655256 35.2519144 63.1655256 33.1875 62.5 C30.34526737 61.49475794 27.65775067 60.43961495 25 59 C25.61875 60.134375 26.2375 61.26875 26.875 62.4375 C27.22304687 63.07558594 27.57109375 63.71367187 27.9296875 64.37109375 C28.91410024 66.16618315 28.91410024 66.16618315 31 67 C31.66666667 69 32.33333333 71 33 73 C33.66 73.33 34.32 73.66 35 74 C35.33333333 75.33333333 35.66666667 76.66666667 36 78 C36.66 78.33 37.32 78.66 38 79 C38.625 82.0625 38.625 82.0625 39 85 C39.66 85 40.32 85 41 85 C41.474375 85.969375 41.94875 86.93875 42.4375 87.9375 C43.70193947 90.80477437 43.70193947 90.80477437 45 92 C45.08651611 93.41570123 45.10704904 94.835595 45.09765625 96.25390625 C45.09282227 97.53491211 45.09282227 97.53491211 45.08789062 98.84179688 C45.07532227 100.18854492 45.07532227 100.18854492 45.0625 101.5625 C45.05798828 102.46419922 45.05347656 103.36589844 45.04882812 104.29492188 C45.03700225 106.53001314 45.0205222 108.76497437 45 111 C43.02 110.505 43.02 110.505 41 110 C41 109.01 41 108.02 41 107 C39.6696875 106.7215625 39.6696875 106.7215625 38.3125 106.4375 C34.92214602 104.96621431 33.01110853 103.55183474 30.95703125 100.4609375 C29.22659698 96.01124937 29.38431633 91.34770501 29.3359375 86.62109375 C28.96988177 82.67535354 27.79886758 80.49060657 26 77 C25.30331189 74.25618939 24.8675477 71.48408237 24.4375 68.6875 C24.03497052 66.0906098 23.56631832 63.57067005 23 61 C22.01 60.505 22.01 60.505 21 60 C20.67 62.97 20.34 65.94 20 69 C19.34 69 18.68 69 18 69 C17.86045898 69.70576172 17.72091797 70.41152344 17.57714844 71.13867188 C16.54090904 76.27603473 15.40664794 81.38855078 14.25 86.5 C14.01023438 87.62792969 13.77046875 88.75585938 13.5234375 89.91796875 C12.099779 96.11895553 11.11274655 100.07281787 6 104 C5.319375 104.763125 4.63875 105.52625 3.9375 106.3125 C2 108 2 108 -2 108 C-3.0985972 96.67495474 -2.50692071 89.7706618 4.67578125 80.75 C5.82626953 79.38875 5.82626953 79.38875 7 78 C7.9734919 76.63569018 8.93532952 75.26282101 9.875 73.875 C12 71 12 71 13.5703125 69.46875 C15.45534682 67.53221201 16.0418035 65.5152658 17 63 C17.97236487 61.3170608 18.96564444 59.64556566 20 58 C11.61079694 61.26174928 11.61079694 61.26174928 4.5 66.5625 C2.5738149 68.40842739 0.43398477 69.03765465 -2.02734375 69.97265625 C-4.38612095 71.20108873 -5.81377409 72.80620348 -7.6875 74.6875 C-14.55142814 80.4194821 -24.6043166 78.55083431 -33 78 C-31.73198863 72.05321735 -27.85129959 67.65639283 -23.05810547 64.0625 C-16.35196431 60.60044468 -7.33952048 61.65351658 0 62 C0 61.34 0 60.68 0 60 C2.06081361 59.49309416 4.12373526 58.99475381 6.1875 58.5 C7.33605469 58.2215625 8.48460937 57.943125 9.66796875 57.65625 C12.56818829 57.08504615 15.06096385 56.86716221 18 57 C17.10664203 54.64214682 17.10664203 54.64214682 13.9375 53.875 C12.968125 53.58625 11.99875 53.2975 11 53 C11 52.34 11 51.68 11 51 C10.20335937 50.95101562 9.40671875 50.90203125 8.5859375 50.8515625 C3.04392438 50.46052021 -1.76478456 49.93475353 -7 48 C-9.5061296 47.5109991 -12.01493478 47.07023968 -14.53515625 46.66015625 C-20.20794527 45.14081973 -23.48293782 41.67545649 -27.3125 37.375 C-27.76689453 36.87226563 -28.22128906 36.36953125 -28.68945312 35.8515625 C-32 32.14773261 -32 32.14773261 -32 31 C-25.4 31 -18.8 31 -12 31 C-11.67 31.99 -11.34 32.98 -11 34 C-6.5697274 37.72211986 -1.67055876 40.79463366 3.5625 43.25 C7 45 7 45 8 48 C10.31074405 48.74118205 12.64811553 49.40206327 15 50 C16.35350594 50.62469505 17.69934483 51.2716331 19 52 C13.57024061 38.01099507 13.57024061 38.01099507 5 26 C1.35605937 22.35605937 -0.18109659 19.52314149 -0.29296875 14.35546875 C-0.27316529 12.63256761 -0.23758888 10.90978674 -0.1875 9.1875 C-0.16719727 7.86202148 -0.16719727 7.86202148 -0.14648438 6.50976562 C-0.11129217 4.33957977 -0.05748985 2.16970967 0 0 Z " fill="#8E8E8E" transform="translate(139,96)"/>
<path d="M0 0 C7.31287007 0.54499032 14.29966584 1.7798987 21.4375 3.4375 C22.90606445 3.76331055 22.90606445 3.76331055 24.40429688 4.09570312 C25.34208984 4.31033203 26.27988281 4.52496094 27.24609375 4.74609375 C28.08841553 4.93872803 28.9307373 5.1313623 29.79858398 5.32983398 C32.97213854 6.29594325 34.67661405 7.45612363 36.375 10.3125 C37.95763756 13.17194165 37.95763756 13.17194165 40.6875 15.6875 C43 18 43 18 43 20 C26.60535451 21.37613086 26.60535451 21.37613086 20.60546875 18.20703125 C17.92762568 15.9199464 15.47867736 13.4991623 13 11 C11.38404218 9.87258757 9.73928299 8.78478369 8.0625 7.75 C4.67070949 5.57390501 2.28683693 3.38054155 0 0 Z " fill="#2B2B2B" transform="translate(173,157)"/>
<path d="M0 0 C1.26730564 17.33995977 1.26730564 17.33995977 -5.17578125 25.21484375 C-7 27 -7 27 -10 29 C-10.309375 29.78375 -10.61875 30.5675 -10.9375 31.375 C-12.14936876 34.36902869 -13.54577296 35.92924594 -16 38 C-16.66 38 -17.32 38 -18 38 C-16.75068742 13.04662502 -16.75068742 13.04662502 -10.72265625 6.54296875 C-9.84480469 5.76566406 -8.96695313 4.98835938 -8.0625 4.1875 C-7.18722656 3.39730469 -6.31195313 2.60710937 -5.41015625 1.79296875 C-3 0 -3 0 0 0 Z " fill="#282828" transform="translate(186,99)"/>
<path d="M0 0 C3 0 3 0 4.68359375 1.609375 C5.26238281 2.31578125 5.84117187 3.0221875 6.4375 3.75 C9.05085257 6.91492647 9.05085257 6.91492647 12.11328125 9.625 C15.1065265 13.39289464 15.19919067 17.56488066 15.75 22.25 C15.87503906 23.16652344 16.00007813 24.08304688 16.12890625 25.02734375 C16.82561272 30.39428038 17.12698545 35.59041989 17 41 C16.67 40.34 16.34 39.68 16 39 C15.01 39 14.02 39 13 39 C12.566875 38.113125 12.13375 37.22625 11.6875 36.3125 C8.89331187 30.77107049 8.89331187 30.77107049 5 26 C1.35605937 22.35605937 -0.18109659 19.52314149 -0.29296875 14.35546875 C-0.27316529 12.63256761 -0.23758888 10.90978674 -0.1875 9.1875 C-0.17396484 8.30384766 -0.16042969 7.42019531 -0.14648438 6.50976562 C-0.11129217 4.33957977 -0.05748985 2.16970967 0 0 Z " fill="#1B1B1B" transform="translate(139,96)"/>
<path d="M0 0 C0.87011719 0.02255859 1.74023438 0.04511719 2.63671875 0.06835938 C4.75857251 0.12665206 6.87952629 0.21630916 9 0.3125 C9 3.3125 9 3.3125 7.35546875 5.03125 C6.64003906 5.6190625 5.92460937 6.206875 5.1875 6.8125 C2.2776396 9.18647761 2.2776396 9.18647761 -0.33544922 11.86499023 C-2.46146455 13.71379412 -3.89460887 13.86393819 -6.67578125 14.19140625 C-7.58650391 14.30806641 -8.49722656 14.42472656 -9.43554688 14.54492188 C-10.38494141 14.65384766 -11.33433594 14.76277344 -12.3125 14.875 C-18.13150875 15.57488078 -23.45878604 16.31221539 -29 18.3125 C-32.375 18.4375 -32.375 18.4375 -35 18.3125 C-33.59261865 14.09035594 -31.16642533 13.40771906 -27.3671875 11.38671875 C-24.5955085 10.12894363 -22.03191526 9.54572425 -19 9.3125 C-18.85884766 8.40697388 -18.85884766 8.40697388 -18.71484375 7.4831543 C-17.59084874 4.0700943 -15.38325047 3.06037488 -12.375 1.30712891 C-8.27642434 -0.40931818 -4.37439798 -0.21838392 0 0 Z " fill="#232323" transform="translate(207,129.6875)"/>
<path d="M0 0 C0.33 0 0.66 0 1 0 C0.7362958 6.96179086 -0.17055394 13.66308383 -1.75 20.4375 C-1.89469727 21.11103516 -2.03939453 21.78457031 -2.18847656 22.47851562 C-3.37949703 27.29553175 -5.30172699 29.77199405 -9 33 C-9.680625 33.763125 -10.36125 34.52625 -11.0625 35.3125 C-13 37 -13 37 -17 37 C-18.37729814 20.68284286 -18.37729814 20.68284286 -13.375 13.75 C-10.21324257 10.05102361 -6.85112418 6.95551391 -3 4 C-1.97186389 2.68824014 -0.95915568 1.3630107 0 0 Z " fill="#212121" transform="translate(154,167)"/>
<path d="M0 0 C4.54349056 2.98572237 6.46755206 6.31434332 8.7890625 11.07421875 C9.9208657 13.32627421 9.9208657 13.32627421 13 14 C14.0650015 15.96615661 15.06833174 17.96726926 16 20 C16.33 20.33 16.66 20.66 17 21 C17.08651611 22.41570123 17.10704904 23.835595 17.09765625 25.25390625 C17.09443359 26.10791016 17.09121094 26.96191406 17.08789062 27.84179688 C17.07951172 28.73962891 17.07113281 29.63746094 17.0625 30.5625 C17.05798828 31.46419922 17.05347656 32.36589844 17.04882812 33.29492188 C17.03700225 35.53001314 17.0205222 37.76497437 17 40 C15.68 39.67 14.36 39.34 13 39 C13 38.01 13 37.02 13 36 C12.071875 35.773125 11.14375 35.54625 10.1875 35.3125 C6.28189316 33.70430895 5.74279575 32.79431532 4 29 C3.42111801 26.03680483 3.17076545 23.07039654 2.9375 20.0625 C2.49433122 14.71375998 1.84720947 10.08552731 0 5 C-0.125 2.125 -0.125 2.125 0 0 Z " fill="#1D1D1D" transform="translate(167,167)"/>
<path d="M0 0 C6.6 0 13.2 0 20 0 C20.33 0.99 20.66 1.98 21 3 C23.11178967 4.76604164 23.11178967 4.76604164 25.6875 6.4375 C26.58597656 7.04980469 27.48445313 7.66210938 28.41015625 8.29296875 C29.92705451 9.2927946 31.45226459 10.28056335 32.99609375 11.23828125 C34.37338437 12.09372075 35.69474001 13.03822948 37 14 C37 14.99 37 15.98 37 17 C11.58950485 14.67001932 11.58950485 14.67001932 1.87109375 3.3984375 C0 1 0 1 0 0 Z " fill="#191919" transform="translate(107,127)"/>
<path d="M0 0 C0 3 0 3 -1.25 4.46484375 C-5.59236867 8.11902452 -9.85513403 10.60497618 -15 13 C-15.33 13.33 -15.66 13.66 -16 14 C-17.34267413 14.08631874 -18.68974322 14.10706473 -20.03515625 14.09765625 C-20.84404297 14.09443359 -21.65292969 14.09121094 -22.48632812 14.08789062 C-23.33646484 14.07951172 -24.18660156 14.07113281 -25.0625 14.0625 C-25.91650391 14.05798828 -26.77050781 14.05347656 -27.65039062 14.04882812 C-29.76695663 14.03700373 -31.88348685 14.01906769 -34 14 C-29.80078125 9.01953125 -29.80078125 9.01953125 -28 7 C-27.26910156 6.1234375 -26.53820312 5.246875 -25.78515625 4.34375 C-22.35089401 1.45376775 -19.44680078 1.02274249 -15.125 0.6875 C-14.44308594 0.61466797 -13.76117188 0.54183594 -13.05859375 0.46679688 C-8.69297258 0.03023476 -4.38517704 -0.06297252 0 0 Z " fill="#1A1A1A" transform="translate(141,159)"/>
<path d="M0 0 C1.07174763 3.65188082 0.76411467 6.26432828 0 10 C1.65 8.68 3.3 7.36 5 6 C4.125 10.75 4.125 10.75 3 13 C2.34 13 1.68 13 1 13 C-0.07525194 15.65228812 -1.09456151 18.28368454 -2 21 C0.31 20.34 2.62 19.68 5 19 C5 19.33 5 19.66 5 20 C6.52152079 19.88366642 8.04220723 19.7564113 9.5625 19.625 C10.40941406 19.55539063 11.25632813 19.48578125 12.12890625 19.4140625 C15.11802184 19.05383607 15.11802184 19.05383607 18.37890625 17.99609375 C22.11880892 16.96731793 25.5125858 16.69256509 29.375 16.4375 C36.57966488 15.58610465 39.8980366 13.34004567 44.55859375 7.8984375 C45.27208984 6.95871094 45.27208984 6.95871094 46 6 C46 9.56580394 45.43933051 10.31610269 43.1875 13 C37.18558274 18.89396911 29.15997253 18.81892356 21.203125 19.68652344 C18.04061034 20.1365089 15.05784118 21.0915887 12 22 C8.57115989 22.55229639 5.14019284 22.99806196 1.6953125 23.4375 C0.80585938 23.623125 -0.08359375 23.80875 -1 24 C-1.33 24.66 -1.66 25.32 -2 26 C-1.2575 26.12375 -0.515 26.2475 0.25 26.375 C2.80141485 26.95486701 4.7267573 27.73708739 7 29 C6.67 29.99 6.34 30.98 6 32 C3.0582673 31.04222656 0.16731995 30.07004091 -2.6875 28.875 C-5.05555895 27.82305395 -5.05555895 27.82305395 -8 28 C-8 27.34 -8 26.68 -8 26 C-8.66 26 -9.32 26 -10 26 C-10 25.34 -10 24.68 -10 24 C-9.34 24 -8.68 24 -8 24 C-8.33 20.7 -8.66 17.4 -9 14 C-8.34 14.33 -7.68 14.66 -7 15 C-6.67 15.99 -6.34 16.98 -6 18 C-3.49289691 12.06084316 -1.39938346 6.29722557 0 0 Z " fill="#838383" transform="translate(168,127)"/>
<path d="M0 0 C0 4.73253397 -3.07029803 7.4514719 -5.84765625 11.13671875 C-7.14388555 12.86110364 -8.41172143 14.6081572 -9.62109375 16.39453125 C-12.90330322 21.18886974 -15.39392185 23.30759905 -21 25 C-21.99 25 -22.98 25 -24 25 C-23.77057874 21.09983854 -23.52729256 18.66336806 -21.0625 15.5625 C-19.5465625 14.2940625 -19.5465625 14.2940625 -18 13 C-17.24976562 12.36964844 -16.49953125 11.73929688 -15.7265625 11.08984375 C-10.70114132 6.95353554 -5.59754843 3.31706574 0 0 Z " fill="#171717" transform="translate(136,175)"/>
<path d="M0 0 C0.66 0.33 1.32 0.66 2 1 C2.4574152 3.70562588 2.79887609 6.33685802 3.0625 9.0625 C3.21978039 10.5534141 3.37733154 12.04429967 3.53515625 13.53515625 C3.60887451 14.2739502 3.68259277 15.01274414 3.75854492 15.77392578 C3.9979977 17.98154 4.30447961 20.17283025 4.6171875 22.37109375 C5.00550216 26.05215821 4.71134683 27.77864126 3 31 C2.34 31 1.68 31 1 31 C1 31.66 1 32.32 1 33 C-2 32 -2 32 -3.25 29.625 C-4.97436625 21.29056312 -3.80405822 7.60811644 0 0 Z " fill="#292929" transform="translate(160,186)"/>
<path d="M0 0 C0 0.66 0 1.32 0 2 C-1.98 2.66 -3.96 3.32 -6 4 C-6 4.66 -6 5.32 -6 6 C-12.2484067 5.30654365 -18.34403221 4.20358931 -24.5 2.9375 C-25.4178125 2.75123047 -26.335625 2.56496094 -27.28125 2.37304688 C-29.52138854 1.91801873 -31.76093726 1.46028733 -34 1 C-34 0.34 -34 -0.32 -34 -1 C-32.91460937 -1.06058594 -31.82921875 -1.12117187 -30.7109375 -1.18359375 C-29.26561514 -1.26806064 -27.82030318 -1.35270551 -26.375 -1.4375 C-25.66214844 -1.47681641 -24.94929687 -1.51613281 -24.21484375 -1.55664062 C-4.75491628 -2.71709502 -4.75491628 -2.71709502 0 0 Z " fill="#2F2F2F" transform="translate(228,152)"/>
<path d="M0 0 C-2.38599482 2.80705273 -5.17751615 4.28192177 -8.36328125 6.01171875 C-10.1361871 6.98012125 -10.1361871 6.98012125 -11.6875 8.8125 C-12.120625 9.204375 -12.55375 9.59625 -13 10 C-15.1875 9.6875 -15.1875 9.6875 -17 9 C-16.01 8.67 -15.02 8.34 -14 8 C-14 7.01 -14 6.02 -14 5 C-30.12009077 5.42110032 -30.12009077 5.42110032 -43.4375 13.1875 C-45.55928828 15.75720009 -45.55928828 15.75720009 -47 18 C-44.24973583 18.05404449 -41.50053797 18.09369306 -38.75 18.125 C-37.58404297 18.15013672 -37.58404297 18.15013672 -36.39453125 18.17578125 C-30.91693064 18.25968301 -30.91693064 18.25968301 -26 16 C-27.20825195 17.97558594 -27.20825195 17.97558594 -29 20 C-31.17651367 20.45410156 -31.17651367 20.45410156 -33.66796875 20.390625 C-34.56064453 20.37773437 -35.45332031 20.36484375 -36.37304688 20.3515625 C-37.30181641 20.31804687 -38.23058594 20.28453125 -39.1875 20.25 C-40.12787109 20.23195312 -41.06824219 20.21390625 -42.03710938 20.1953125 C-44.35909889 20.1481655 -46.6790369 20.08238231 -49 20 C-47.73198863 14.05321735 -43.85129959 9.65639283 -39.05810547 6.0625 C-32.35196431 2.60044468 -23.33952048 3.65351658 -16 4 C-16 3.34 -16 2.68 -16 2 C-10.54538831 0.61470179 -5.63281599 -0.2396943 0 0 Z " fill="#676767" transform="translate(155,154)"/>
<path d="M0 0 C0 0.66 0 1.32 0 2 C-7.92 2.495 -7.92 2.495 -16 3 C-16 3.66 -16 4.32 -16 5 C-20.92991345 5.28999491 -24.09251769 5.19703098 -28 2 C-28 1.01 -28 0.02 -28 -1 C-19.64565895 -6.80162573 -8.86961644 -3.12006419 0 0 Z " fill="#444444" transform="translate(123,150)"/>
<path d="M0 0 C3.24980499 1.37491749 5.63322774 3.34102209 8.28125 5.64453125 C10.17895458 7.14113009 12.1553581 8.29709877 14.25 9.5 C16.89854932 11.11238022 17.89758267 11.82503706 19.5 14.5625 C20 17 20 17 20 21 C15.44426007 20.45765001 11.89165792 19.47650958 8 17 C6.8125 14.6875 6.8125 14.6875 6 12 C4.12534421 7.836794 4.12534421 7.836794 1.3125 4.3125 C0.879375 3.879375 0.44625 3.44625 0 3 C0 2.01 0 1.02 0 0 Z " fill="#333333" transform="translate(188,179)"/>
<path d="M0 0 C6.90240935 0.11900706 6.90240935 0.11900706 9.76171875 2.4140625 C14.08408126 7.3570161 16.66822515 12.90151193 19 19 C14.70080213 18.44936382 11.69803998 15.81645499 8.375 13.25 C7.78976563 12.81945312 7.20453125 12.38890625 6.6015625 11.9453125 C3.15159952 9.30245095 1.0839109 7.251183 0 3 C0 2.01 0 1.02 0 0 Z " fill="#1A1A1A" transform="translate(115,104)"/>
<path d="M0 0 C0 3.1875 0 3.1875 -1 7 C-2.79704259 8.52815841 -4.65509028 9.54988197 -6.73046875 10.66796875 C-9.98733311 12.57948467 -12.58637989 15.07572145 -15.3359375 17.64453125 C-17 19 -17 19 -19 19 C-19.33 19.99 -19.66 20.98 -20 22 C-20.99 21.67 -21.98 21.34 -23 21 C-19.33500198 15.56059372 -15.78466063 10.52603033 -11 6 C-10.319375 5.0925 -9.63875 4.185 -8.9375 3.25 C-6.09818618 -0.04726766 -4.20351647 0 0 0 Z " fill="#222222" transform="translate(209,106)"/>
<path d="M0 0 C0.66 0 1.32 0 2 0 C5.0021731 10.71850229 2.57424214 19.37922739 0 30 C-2.35315352 26.19490069 -2.77137389 22.10171345 -3.3125 17.75 C-3.42400391 17.02425781 -3.53550781 16.29851562 -3.65039062 15.55078125 C-4.36403079 9.87202761 -3.3766009 6.20423554 -1 1 C-0.67 0.67 -0.34 0.34 0 0 Z " fill="#2A2A2A" transform="translate(163,83)"/>
<path d="M0 0 C0.99 0 1.98 0 3 0 C4.38671875 1.53125 4.38671875 1.53125 5.6875 3.5 C6.12449219 4.1496875 6.56148437 4.799375 7.01171875 5.46875 C7.33785156 5.9740625 7.66398438 6.479375 8 7 C6.35 6.67 4.7 6.34 3 6 C3 10.62 3 15.24 3 20 C3.66 20.33 4.32 20.66 5 21 C5.625 24.0625 5.625 24.0625 6 27 C2.80907945 24.11297664 0.24636619 21.23576691 -0.2409668 16.81323242 C-0.2948808 14.26509967 -0.26159049 11.73507308 -0.1875 9.1875 C-0.17396484 8.30384766 -0.16042969 7.42019531 -0.14648438 6.50976562 C-0.11129217 4.33957977 -0.05748985 2.16970967 0 0 Z " fill="#6A6A6A" transform="translate(139,96)"/>
<path d="M0 0 C5.4963063 0.75989201 10.96614117 1.64105439 16.4375 2.5625 C17.67790039 2.77036133 17.67790039 2.77036133 18.94335938 2.98242188 C20.96236489 3.32086789 22.98120022 3.66032893 25 4 C24.67 2.68 24.34 1.36 24 0 C25.32 0.66 26.64 1.32 28 2 C28 2.66 28 3.32 28 4 C28.804375 4.28875 29.60875 4.5775 30.4375 4.875 C33 6 33 6 34 8 C31.62388845 7.71583399 29.24939504 7.42291099 26.875 7.125 C26.20984375 7.04636719 25.5446875 6.96773437 24.859375 6.88671875 C20.68184874 6.35428893 16.96416519 5.38882477 13 4 C10.43043911 3.45824778 7.8572778 3.00770371 5.26953125 2.5625 C3 2 3 2 0 0 Z " fill="#5B5B5B" transform="translate(119,140)"/>
<path d="M0 0 C4.65893055 3.1059537 6.04730978 7.89296404 8 13 C4.29496359 12.39665691 2.14031852 10.77525763 -0.75 8.4375 C-1.54921875 7.79683594 -2.3484375 7.15617187 -3.171875 6.49609375 C-3.77515625 6.00238281 -4.3784375 5.50867188 -5 5 C-4.34 4.67 -3.68 4.34 -3 4 C-2.01 4.33 -1.02 4.66 0 5 C0 3.35 0 1.7 0 0 Z " fill="#545454" transform="translate(126,110)"/>
<path d="M0 0 C0.66 0.33 1.32 0.66 2 1 C2 3.97 2 6.94 2 10 C1.34 10 0.68 10 0 10 C-1.32719886 16.96779403 -1.08825381 23.92988911 -1 31 C-0.34 31 0.32 31 1 31 C1 31.66 1 32.32 1 33 C-2 32 -2 32 -3.25 29.625 C-4.97436625 21.29056312 -3.80405822 7.60811644 0 0 Z " fill="#575757" transform="translate(160,186)"/>
<path d="M0 0 C5.21979128 -0.1799928 9.07262981 0.02905192 14 2 C14 2.99 14 3.98 14 5 C6.64206267 5.91160286 -0.58982977 6.11459026 -8 6 C-8 5.67 -8 5.34 -8 5 C-2.63904667 3.87137825 2.55306686 3.90311779 8 4 C8 3.34 8 2.68 8 2 C5.36 1.67 2.72 1.34 0 1 C0 0.67 0 0.34 0 0 Z " fill="#C0C0C0" transform="translate(115,148)"/>
<path d="M0 0 C0.66 0.66 1.32 1.32 2 2 C1.01257813 1.96519531 0.02515625 1.93039063 -0.9921875 1.89453125 C-2.91417969 1.85392578 -2.91417969 1.85392578 -4.875 1.8125 C-6.15117188 1.77769531 -7.42734375 1.74289063 -8.7421875 1.70703125 C-9.81726563 1.80371094 -10.89234375 1.90039062 -12 2 C-12.99 3.485 -12.99 3.485 -14 5 C-13.34 5 -12.68 5 -12 5 C-12 5.66 -12 6.32 -12 7 C-10.02 7 -8.04 7 -6 7 C-6 7.33 -6 7.66 -6 8 C-10.92991345 8.28999491 -14.09251769 8.19703098 -18 5 C-18 4.01 -18 3.02 -18 2 C-12.33177297 -1.93626877 -6.6089764 -1.31585907 0 0 Z " fill="#636363" transform="translate(113,147)"/>
<path d="M0 0 C1.07174763 3.65188082 0.76411467 6.26432828 0 10 C1.65 8.68 3.3 7.36 5 6 C4.125 10.75 4.125 10.75 3 13 C2.34 13 1.68 13 1 13 C0.67 13.99 0.34 14.98 0 16 C-0.99 16.33 -1.98 16.66 -3 17 C-2.48517081 11.147205 -1.54642808 5.6702363 0 0 Z " fill="#747474" transform="translate(168,127)"/>
<path d="M0 0 C0 4.03381023 -1.59573562 5.49433637 -4 8.6875 C-4.7425 9.68136719 -5.485 10.67523438 -6.25 11.69921875 C-7.11625 12.83810547 -7.11625 12.83810547 -8 14 C-8 11 -8 11 -7 8 C-8.98 8.66 -10.96 9.32 -13 10 C-9.11973109 5.75595588 -4.95745654 2.89082453 0 0 Z " fill="#787878" transform="translate(136,175)"/>
<path d="M0 0 C1.33332095 2.6666419 0.67102033 4.16680303 0 7 C2.64 6.01 5.28 5.02 8 4 C7.4375 5.8125 7.4375 5.8125 6 8 C2.49009536 9.78686054 -0.04124604 11 -4 11 C-3.56179109 6.44262737 -3.14958831 3.42346555 0 0 Z " fill="#5A5A5A" transform="translate(116,189)"/>
<path d="M0 0 C0.33 0 0.66 0 1 0 C1.19367565 5.51975614 0.7073483 9.68824974 -1 15 C-1.69439116 17.66026882 -2.34417488 20.32985486 -3 23 C-3.66 23 -4.32 23 -5 23 C-5 19.37 -5 15.74 -5 12 C-4.34 12 -3.68 12 -3 12 C-2.01 8.04 -1.02 4.08 0 0 Z " fill="#ABABAB" transform="translate(166,97)"/>
<path d="M0 0 C2.64 0 5.28 0 8 0 C8 0.66 8 1.32 8 2 C8.99 2.33 9.98 2.66 11 3 C11 3.33 11 3.66 11 4 C9.20909747 4.19466332 7.41723495 4.38051213 5.625 4.5625 C4.12839844 4.71912109 4.12839844 4.71912109 2.6015625 4.87890625 C0 5 0 5 -2 4 C-1.34 2.68 -0.68 1.36 0 0 Z " fill="#121212" transform="translate(101,148)"/>
<path d="M0 0 C5.28 0 10.56 0 16 0 C16 0.33 16 0.66 16 1 C14.35 1.33 12.7 1.66 11 2 C15.455 2.99 15.455 2.99 20 4 C15.47669436 5.13082641 12.19544634 4.48536209 7.75 3.5625 C7.00492188 3.41490234 6.25984375 3.26730469 5.4921875 3.11523438 C3.65992335 2.7511306 1.82973947 2.37658591 0 2 C0 1.34 0 0.68 0 0 Z " fill="#737373" transform="translate(194,151)"/>
<path d="M0 0 C6.6 0 13.2 0 20 0 C20 1.65 20 3.3 20 5 C19.34 5 18.68 5 18 5 C18 4.01 18 3.02 18 2 C12.06 2 6.12 2 0 2 C0 1.34 0 0.68 0 0 Z " fill="#CFCFCF" transform="translate(198,128)"/>
<path d="M0 0 C6.6 0 13.2 0 20 0 C20 0.99 20 1.98 20 3 C15.05 3 10.1 3 5 3 C4.67 3.66 4.34 4.32 4 5 C2.68 3.35 1.36 1.7 0 0 Z " fill="#5C5C5C" transform="translate(107,127)"/>
<path d="M0 0 C0.66 0 1.32 0 2 0 C2 5.61 2 11.22 2 17 C2.66 17.33 3.32 17.66 4 18 C3.67 18.66 3.34 19.32 3 20 C2.01 20 1.02 20 0 20 C0 13.4 0 6.8 0 0 Z " fill="#C8C8C8" transform="translate(135,187)"/>
<path d="M0 0 C0.33 0 0.66 0 1 0 C0.25 7.75 0.25 7.75 -2 10 C-2.33 9.34 -2.66 8.68 -3 8 C-5.31 10.64 -7.62 13.28 -10 16 C-10.33 15.34 -10.66 14.68 -11 14 C-10.23286356 12.89326166 -9.46110997 11.78972306 -8.6875 10.6875 C-8.04361328 9.76517578 -8.04361328 9.76517578 -7.38671875 8.82421875 C-6.03871035 7.0509232 -4.58752694 5.55724714 -3 4 C-2.46375 3.278125 -1.9275 2.55625 -1.375 1.8125 C-0.92125 1.214375 -0.4675 0.61625 0 0 Z " fill="#3E3E3E" transform="translate(157,160)"/>
<path d="M0 0 C0.99 0 1.98 0 3 0 C3 6.6 3 13.2 3 20 C2.34 20 1.68 20 1 20 C1 14.39 1 8.78 1 3 C0.34 2.67 -0.32 2.34 -1 2 C-0.67 1.34 -0.34 0.68 0 0 Z " fill="#C8C8C8" transform="translate(185,96)"/>
<path d="M0 0 C0.33 1.32 0.66 2.64 1 4 C0.01 4.66 -0.98 5.32 -2 6 C-2.72965366 8.56282742 -2.72965366 8.56282742 -3 11 C-3.99 11.33 -4.98 11.66 -6 12 C-6.33 12.99 -6.66 13.98 -7 15 C-7.99 14.67 -8.98 14.34 -10 14 C-8.8966898 12.41606974 -7.79231456 10.83288132 -6.6875 9.25 C-5.76517578 7.92742187 -5.76517578 7.92742187 -4.82421875 6.578125 C-3.25166935 4.35567831 -1.64631488 2.16807006 0 0 Z " fill="#747474" transform="translate(196,113)"/>
<path d="M0 0 C0.99 0.495 0.99 0.495 2 1 C2.33 1.99 2.66 2.98 3 4 C3.99 2.68 4.98 1.36 6 0 C7.61949011 2.57213134 8.04408751 3.67669159 7.625 6.75 C7.41875 7.4925 7.2125 8.235 7 9 C4.03 8.505 4.03 8.505 1 8 C0.67 5.36 0.34 2.72 0 0 Z " fill="#A4A4A4" transform="translate(159,141)"/>
<path d="M0 0 C0.33 0 0.66 0 1 0 C2.08318169 5.3212615 3.152874 10.63486869 4 16 C3.34 16 2.68 16 2 16 C-0.74778884 12.41954788 -2.46968862 9.5076467 -3 5 C-2.34 5 -1.68 5 -1 5 C-0.67 3.35 -0.34 1.7 0 0 Z " fill="#565656" transform="translate(156,130)"/>
<path d="M0 0 C-2.36595933 2.61500768 -4.86049226 4.38999603 -8 6 C-8.66 5.67 -9.32 5.34 -10 5 C-9.67 4.67 -9.34 4.34 -9 4 C-11.31 3.67 -13.62 3.34 -16 3 C-16 2.67 -16 2.34 -16 2 C-10.54538831 0.61470179 -5.63281599 -0.2396943 0 0 Z " fill="#5F5F5F" transform="translate(155,154)"/>
<path d="M0 0 C3.38555647 1.40091992 5.18190974 2.79669811 7 6 C7.6875 9.75 7.6875 9.75 8 13 C4.58054359 10.72036239 4.43376737 9.67402889 3 6 C2.46375 5.46375 1.9275 4.9275 1.375 4.375 C0.92125 3.92125 0.4675 3.4675 0 3 C0 2.01 0 1.02 0 0 Z " fill="#5F5F5F" transform="translate(188,179)"/>
<path d="M0 0 C-0.6998952 3.14952839 -1.65160149 6.0652503 -3 9 C-3.99 9.495 -3.99 9.495 -5 10 C-4.34 7.69 -3.68 5.38 -3 3 C-3.94875 3.515625 -4.8975 4.03125 -5.875 4.5625 C-6.90625 5.036875 -7.9375 5.51125 -9 6 C-9.66 5.67 -10.32 5.34 -11 5 C-7.92351092 1.43774949 -4.70156256 0 0 0 Z " fill="#4A4A4A" transform="translate(129,183)"/>
<path d="M0 0 C-0.33 0.99 -0.66 1.98 -1 3 C-0.01 3.66 0.98 4.32 2 5 C-1.63 5.33 -5.26 5.66 -9 6 C-8 3 -8 3 -5.0625 1.3125 C-2 0 -2 0 0 0 Z " fill="#3C3C3C" transform="translate(181,142)"/>
<path d="M0 0 C-1.65 0.33 -3.3 0.66 -5 1 C-3.37633534 4.24732932 -0.24612161 4.70155136 3 6 C1.3125 6.6875 1.3125 6.6875 -1 7 C-3.5 5.625 -3.5 5.625 -6 4 C-8.19130534 3.30420546 -8.19130534 3.30420546 -10 3 C-9.67 2.01 -9.34 1.02 -9 0 C-5.62182575 -0.84454356 -3.32534757 -1.10844919 0 0 Z " fill="#C9C9C9" transform="translate(176,150)"/>
<path d="M0 0 C1.485 0.99 1.485 0.99 3 2 C3.34057617 3.97119141 3.34057617 3.97119141 3.29296875 6.3515625 C3.28330078 7.20234375 3.27363281 8.053125 3.26367188 8.9296875 C3.23853516 9.81914062 3.21339844 10.70859375 3.1875 11.625 C3.17396484 12.5221875 3.16042969 13.419375 3.14648438 14.34375 C3.11106925 16.56309789 3.06168461 18.78125188 3 21 C1.68 20.67 0.36 20.34 -1 20 C-0.34 19.67 0.32 19.34 1 19 C1.02697137 16.39576408 1.04682489 13.79180756 1.0625 11.1875 C1.07087891 10.44951172 1.07925781 9.71152344 1.08789062 8.95117188 C1.10259828 5.70077932 1.03531702 3.10595105 0 0 Z " fill="#858585" transform="translate(181,186)"/>
<path d="M0 0 C7.50769231 0.61538462 7.50769231 0.61538462 10 2.5625 C10.33 3.036875 10.66 3.51125 11 4 C10.67 4.66 10.34 5.32 10 6 C9.1028125 5.2884375 9.1028125 5.2884375 8.1875 4.5625 C5.99617076 2.83534256 5.99617076 2.83534256 3 2 C3 3.98 3 5.96 3 8 C1.0549 5.08235 0.54723683 3.37462715 0 0 Z " fill="#585858" transform="translate(115,104)"/>
<path d="M0 0 C2.31 0.33 4.62 0.66 7 1 C6.67 2.65 6.34 4.3 6 6 C3.36 6.33 0.72 6.66 -2 7 C-0.6875 5.5 -0.6875 5.5 1 4 C1.99 4 2.98 4 4 4 C4 3.34 4 2.68 4 2 C2.68 1.67 1.36 1.34 0 1 C0 0.67 0 0.34 0 0 Z " fill="#A8A8A8" transform="translate(224,150)"/>
<path d="M0 0 C0.66 0.66 1.32 1.32 2 2 C0.80375 1.95875 -0.3925 1.9175 -1.625 1.875 C-5.42329953 1.86148292 -8.44975618 2.57990247 -12 4 C-12 4.99 -12 5.98 -12 7 C-12.66 7 -13.32 7 -14 7 C-13.67 5.35 -13.34 3.7 -13 2 C-8.51023509 0.24789662 -4.81989758 -0.37076135 0 0 Z " fill="#C7C7C7" transform="translate(107,145)"/>
<path d="M0 0 C0.99 0.66 1.98 1.32 3 2 C3 2.99 3 3.98 3 5 C-2.28 5 -7.56 5 -13 5 C-13 4.67 -13 4.34 -13 4 C-7.06 3.505 -7.06 3.505 -1 3 C-0.67 2.01 -0.34 1.02 0 0 Z " fill="#434343" transform="translate(211,171)"/>
<path d="M0 0 C1.4606285 2.64738916 2 3.89448334 2 7 C-1.36720387 5.60667426 -2.9859524 4.0210714 -5 1 C-3 0 -3 0 0 0 Z " fill="#B7B7B7" transform="translate(137,122)"/>
<path d="M0 0 C0.66 0.33 1.32 0.66 2 1 C2 3.97 2 6.94 2 10 C1.34 10 0.68 10 0 10 C-0.66 10.99 -1.32 11.98 -2 13 C-1.85915204 11.20793453 -1.71216299 9.41635083 -1.5625 7.625 C-1.48128906 6.62726563 -1.40007812 5.62953125 -1.31640625 4.6015625 C-1 2 -1 2 0 0 Z " fill="#969696" transform="translate(160,186)"/>
<path d="M0 0 C1.98 0.66 3.96 1.32 6 2 C6 1.34 6 0.68 6 0 C6.99 0.33 7.98 0.66 9 1 C8.67 1.99 8.34 2.98 8 4 C1.9453125 4.1953125 1.9453125 4.1953125 0 4 C-0.66 3.34 -1.32 2.68 -2 2 C-1.34 1.34 -0.68 0.68 0 0 Z " fill="#909090" transform="translate(152,146)"/>
<path d="M0 0 C0 0.99 0 1.98 0 3 C-1.43294498 3.84114171 -2.87154405 4.67265687 -4.3125 5.5 C-5.51326172 6.19609375 -5.51326172 6.19609375 -6.73828125 6.90625 C-9 8 -9 8 -12 8 C-8.2064129 4.78119883 -4.34170523 2.3836813 0 0 Z " fill="#939393" transform="translate(207,113)"/>
<path d="M0 0 C4.99275057 1.27721526 7.57611908 3.17330957 11 7 C6.94835656 7 5.20462558 5.38642331 2 3 C1.34 2.01 0.68 1.02 0 0 Z " fill="#B2B2B2" transform="translate(192,181)"/>
<path d="M0 0 C-0.375 2.9375 -0.375 2.9375 -1 6 C-1.99 6.495 -1.99 6.495 -3 7 C-2.67 5.35 -2.34 3.7 -2 2 C-6.455 3.485 -6.455 3.485 -11 5 C-10.67 4.01 -10.34 3.02 -10 2 C-8.22265625 1.26953125 -8.22265625 1.26953125 -6.0625 0.8125 C-4.99708984 0.57466797 -4.99708984 0.57466797 -3.91015625 0.33203125 C-2 0 -2 0 0 0 Z " fill="#9A9A9A" transform="translate(211,104)"/>
<path d="M0 0 C0 3.39593478 -0.52165948 4.06619881 -2.5 6.6875 C-2.9640625 7.31011719 -3.428125 7.93273437 -3.90625 8.57421875 C-4.2671875 9.04472656 -4.628125 9.51523438 -5 10 C-5 7 -5 7 -4 5 C-4.66 4.67 -5.32 4.34 -6 4 C-4.02 2.68 -2.04 1.36 0 0 Z " fill="#999999" transform="translate(136,175)"/>
<path d="M0 0 C0 3.78176921 -1.07555275 5.76967782 -3 9 C-5.1875 10.375 -5.1875 10.375 -7 11 C-5.5140084 6.40693504 -3.14985318 3.56430755 0 0 Z " fill="#7A7A7A" transform="translate(145,176)"/>
<path d="M0 0 C2.475 0.99 2.475 0.99 5 2 C5 2.66 5 3.32 5 4 C4.01 4 3.02 4 2 4 C2 4.66 2 5.32 2 6 C1.34 6 0.68 6 0 6 C0 5.34 0 4.68 0 4 C-0.66 4 -1.32 4 -2 4 C-2 3.34 -2 2.68 -2 2 C-1.34 2 -0.68 2 0 2 C0 1.34 0 0.68 0 0 Z " fill="#4B4B4B" transform="translate(160,149)"/>
<path d="M0 0 C0.33 0 0.66 0 1 0 C1 1.98 1 3.96 1 6 C1.66 6 2.32 6 3 6 C3 8.64 3 11.28 3 14 C1 10.25 1 10.25 1 8 C0.34 8 -0.32 8 -1 8 C-0.67 5.36 -0.34 2.72 0 0 Z " fill="#505050" transform="translate(160,190)"/>
<path d="M0 0 C0.66 0 1.32 0 2 0 C2 1.98 2 3.96 2 6 C0.35 6.33 -1.3 6.66 -3 7 C-1.125 1.125 -1.125 1.125 0 0 Z " fill="#6F6F6F" transform="translate(163,83)"/>
<path d="M0 0 C0.99 0.33 1.98 0.66 3 1 C3.33 2.65 3.66 4.3 4 6 C2.35 6.33 0.7 6.66 -1 7 C-0.67 4.69 -0.34 2.38 0 0 Z " fill="#D8D8D8" transform="translate(160,156)"/>
<path d="M0 0 C1.24546405 2.49092811 0.7767578 3.41080733 0 6 C1.98 5.67 3.96 5.34 6 5 C5.67 5.66 5.34 6.32 5 7 C2.67843403 7.40729228 0.3431213 7.74438677 -2 8 C-1.125 1.125 -1.125 1.125 0 0 Z " fill="#A8A8A8" transform="translate(114,192)"/>
<path d="M0 0 C-0.66 1.65 -1.32 3.3 -2 5 C-2.33 4.34 -2.66 3.68 -3 3 C-5.64 3.66 -8.28 4.32 -11 5 C-9.70976282 2.41952564 -8.72910609 2.32977036 -6.0625 1.375 C-5.35222656 1.11460937 -4.64195312 0.85421875 -3.91015625 0.5859375 C-2 0 -2 0 0 0 Z " fill="#C2C2C2" transform="translate(159,154)"/>
<path d="M0 0 C1.65 0 3.3 0 5 0 C5.33 0.66 5.66 1.32 6 2 C4.68 2 3.36 2 2 2 C2.33 3.65 2.66 5.3 3 7 C2.34 7 1.68 7 1 7 C0.67 4.69 0.34 2.38 0 0 Z " fill="#C1C1C1" transform="translate(113,102)"/>
<path d="M0 0 C4 4.625 4 4.625 4 8 C3.67 7.67 3.34 7.34 3 7 C2.34 7.66 1.68 8.32 1 9 C0.67 6.03 0.34 3.06 0 0 Z " fill="#3F3F3F" transform="translate(165,161)"/>
<path d="M0 0 C3.77545388 1.09068668 6.47043472 1.9083091 9 5 C4.98525763 5 3.18024863 3.33218233 0 1 C0 0.67 0 0.34 0 0 Z " fill="#B5B5B5" transform="translate(134,134)"/>
<path d="M0 0 C0.33 1.32 0.66 2.64 1 4 C-1.97 6.475 -1.97 6.475 -5 9 C-3.7508258 5.54074837 -2.32472205 2.85306797 0 0 Z " fill="#868686" transform="translate(151,167)"/>
<path d="M0 0 C2.475 0.99 2.475 0.99 5 2 C5 3.98 5 5.96 5 8 C2.27573689 5.64722731 1.1858237 3.37503669 0 0 Z " fill="#D3D3D3" transform="translate(163,154)"/>
<path d="M0 0 C2.31 0 4.62 0 7 0 C7 0.99 7 1.98 7 3 C4.69 2.67 2.38 2.34 0 2 C0 1.34 0 0.68 0 0 Z " fill="#A7A7A7" transform="translate(194,151)"/>
<path d="M0 0 C0.66 1.32 1.32 2.64 2 4 C1.34 4 0.68 4 0 4 C-0.33 4.99 -0.66 5.98 -1 7 C-1.99 6.67 -2.98 6.34 -4 6 C-2.68 4.02 -1.36 2.04 0 0 Z " fill="#9E9E9E" transform="translate(190,121)"/>
</svg>
